<svg id="Capa_1" enable-background="new 0 0 511.956 511.956" height="512" viewBox="0 0 511.956 511.956" width="512" xmlns="http://www.w3.org/2000/svg"><g><path d="m255.978 330.956v90h-210v91h210 210v-181z" fill="#b9c9d9"/><path d="m255.978 330.956h210v181h-210z" fill="#9ac9ef"/><g><path d="m435.978 240.956v-45c0-126.035-77.681-186.903-80.991-189.379l-8.716-6.577-8.936 6.299c-3.003 2.124-73.74 54.276-80.801 172.899l-.586 9.814 102.338 51.943h77.692z" fill="#b9c9d9"/></g><g><path d="m153.67 240.956 102.338-51.943-.586-9.814c-7.061-118.624-77.798-170.776-80.801-172.9l-8.936-6.299-8.716 6.577c-3.311 2.476-80.991 63.344-80.991 189.379v45z" fill="#cfdfe6"/></g><g><g><path d="m166.154 38.452c-18.721 18.428-60.176 70.111-60.176 157.504v35.566l118.74-60.264c-7.046-74.018-41.953-116.824-58.564-132.806z" fill="#ff8080"/></g></g><g><g><path d="m287.223 171.244 118.755 60.278v-35.566c0-86.88-41.675-139.018-60.264-157.504-16.728 15.982-51.445 58.481-58.491 132.792z" fill="#ff435b"/></g></g><path d="m255.978 330.956h-120v65.647c26.512 15.39 57.197 24.353 90 24.353h30 30c10.256 0 20.213-1.143 30-2.802v-87.198z" fill="#ff8080"/><path d="m315.978 418.155v-87.198h-60v90h30c10.256-.001 20.213-1.144 30-2.802z" fill="#ff435b"/><path d="m315.978 330.956h89.321c18.992-25.129 30.679-56.072 30.679-90 0-82.842-67.158-150-150-150h-30-30c-82.842 0-150 67.158-150 150s67.158 150 150 150h30 30c10.276 0 20.305-1.055 30-3.023z" fill="#e6eef2"/><path d="m315.978 330.956h89.321c18.992-25.129 30.679-56.072 30.679-90 0-82.842-67.158-150-150-150h-30v300h30c10.276 0 20.305-1.055 30-3.023z" fill="#cfdfe6"/><g><path d="m375.978 225.956h-30c0-8.276-6.724-15-15-15s-15 6.724-15 15h-30c0-24.814 20.186-45 45-45s45 20.186 45 45z" fill="#4d1729"/></g><g><path d="m225.978 225.956h-30c0-8.276-6.724-15-15-15s-15 6.724-15 15h-30c0-24.814 20.186-45 45-45s45 20.186 45 45z" fill="#66283d"/></g><path d="m300.978 285.956c0 8.276-6.724 15-15 15s-15-6.724-15-15v-30h-15-15v30c0 8.276-6.724 15-15 15s-15-6.724-15-15h-30c0 24.814 20.186 45 45 45 11.567 0 22.02-4.508 30-11.704 7.98 7.196 18.433 11.704 30 11.704 24.814 0 45-20.186 45-45z" fill="#ff8080"/><path d="m330.978 285.956h-30c0 8.276-6.724 15-15 15s-15-6.724-15-15v-30h-15v63.296c7.98 7.196 18.433 11.704 30 11.704 24.814 0 45-20.185 45-45z" fill="#ff435b"/><path d="m255.978 420.956c-24.853 0-45 20.147-45 45s20.147 46 45 46 45-21.147 45-46-20.147-45-45-45z" fill="#ffe666"/><path d="m300.978 465.956c0-24.853-20.147-45-45-45v91c24.853 0 45-21.147 45-46z" fill="#fabe2c"/><g><path d="m390.978 240.956c-57.891 0-105 47.109-105 105v15h60l15-30 15 30h30l15-30 15 30h60v-15c0-57.891-47.109-105-105-105z" fill="#b9c9d9"/></g><g><path d="m345.978 300.956h30v60h-30z" fill="#ff435b"/></g><g><path d="m405.978 300.956h30v60h-30z" fill="#ff435b"/></g><g><path d="m120.978 330.956c-57.891 0-105 47.109-105 105v15h60l15-30 15 30h30l15-30 15 30h60v-15c0-57.891-47.109-105-105-105z" fill="#cfdfe6"/></g><g fill="#ff435b"><path d="m75.978 390.956h30v60h-30z"/><path d="m135.978 390.956h30v60h-30z"/></g></g></svg>